# Blender 5.1.2
# www.blender.org
g ufo_body_Cylinder.002
v 0.000000 0.026124 1.218127
v 0.609064 0.026124 1.054929
v 0.000000 0.008903 1.240374
v 0.620187 0.008903 1.074195
v 0.000000 0.026124 1.218127
v 0.000000 -0.026124 1.218127
v -0.609064 0.026124 1.054929
v -0.609064 -0.026124 1.054929
v -1.054929 0.026124 0.609064
v -1.054929 -0.026124 0.609064
v -1.218127 0.026124 0.000000
v -1.218127 -0.026124 0.000000
v -1.054929 0.026124 -0.609064
v -1.054929 -0.026124 -0.609064
v -0.609064 0.026124 -1.054929
v -0.609064 -0.026124 -1.054929
v 0.000000 0.026124 -1.218127
v 0.000000 -0.026124 -1.218127
v 0.609064 0.026124 -1.054929
v 0.609064 -0.026124 -1.054929
v 1.054929 0.026124 -0.609064
v 1.054929 -0.026124 -0.609064
v 1.218127 0.026124 0.000000
v 1.218127 -0.026124 0.000000
v 1.054929 0.026124 0.609064
v 1.054929 -0.026124 0.609064
v 0.609064 0.026124 1.054929
v 0.609064 -0.026124 1.054929
v 0.000000 0.005227 1.240374
v 0.000000 0.008903 1.240374
v 0.000000 -0.012189 1.240374
v 0.000000 -0.008513 1.240374
v -0.620187 -0.008513 1.074195
v -0.620187 -0.012189 1.074195
v -0.620187 0.008903 1.074195
v -0.620187 0.005227 1.074195
v -1.074195 -0.008513 0.620187
v -1.074195 -0.012189 0.620187
v -1.074195 0.008903 0.620187
v -1.074195 0.005227 0.620187
v -1.240374 -0.008513 0.000000
v -1.240374 -0.012189 0.000000
v -1.240374 0.008903 0.000000
v -1.240374 0.005227 0.000000
v -1.074195 -0.008513 -0.620187
v -1.074195 -0.012189 -0.620187
v -1.074195 0.008903 -0.620187
v -1.074195 0.005227 -0.620187
v -0.620187 -0.008513 -1.074195
v -0.620187 -0.012189 -1.074195
v -0.620187 0.008903 -1.074195
v -0.620187 0.005227 -1.074195
v 0.000000 -0.008513 -1.240374
v 0.000000 -0.012189 -1.240374
v 0.000000 0.008903 -1.240374
v 0.000000 0.005227 -1.240374
v 0.620187 -0.008513 -1.074195
v 0.620187 -0.012189 -1.074195
v 0.620187 0.008903 -1.074195
v 0.620187 0.005227 -1.074195
v 1.074195 -0.008513 -0.620187
v 1.074195 -0.012189 -0.620187
v 1.074195 0.008903 -0.620187
v 1.074195 0.005227 -0.620187
v 1.240374 -0.008513 0.000000
v 1.240374 -0.012189 0.000000
v 1.240374 0.008903 0.000000
v 1.240374 0.005227 0.000000
v 1.074195 -0.008513 0.620187
v 1.074195 -0.012189 0.620187
v 1.074195 0.008903 0.620187
v 1.074195 0.005227 0.620187
v 0.620187 -0.008513 1.074195
v 0.620187 -0.012189 1.074195
v 0.620187 0.008903 1.074195
v 0.620187 0.005227 1.074195
v 0.000000 0.026124 -0.000000
v -0.000000 -0.026124 -0.000000
vn 0.1619 0.7803 0.6040
vn -0.0000 -1.0000 -0.0000
vn 0.5000 -0.0000 0.8660
vn 0.2588 -0.0000 0.9659
vn 0.5285 0.3931 0.7524
vn 0.3912 -0.6227 0.6776
vn -0.0000 -0.6227 0.7825
vn 0.8660 -0.0000 0.5000
vn 0.7280 0.5416 0.4203
vn 0.6776 -0.6227 0.3912
vn 0.9659 -0.0000 0.2588
vn 0.8406 0.5416 -0.0000
vn 0.7825 -0.6227 -0.0000
vn 0.8660 -0.0000 -0.5000
vn 0.9659 -0.0000 -0.2588
vn 0.7280 0.5416 -0.4203
vn 0.6776 -0.6227 -0.3912
vn 0.5000 -0.0000 -0.8660
vn 0.4203 0.5416 -0.7280
vn 0.3912 -0.6227 -0.6776
vn 0.2588 -0.0000 -0.9659
vn -0.0000 0.5416 -0.8406
vn -0.0000 -0.6227 -0.7825
vn -0.5000 -0.0000 -0.8660
vn -0.2588 -0.0000 -0.9659
vn -0.4203 0.5416 -0.7280
vn -0.3912 -0.6227 -0.6776
vn -0.8660 -0.0000 -0.5000
vn -0.7280 0.5416 -0.4203
vn -0.6776 -0.6227 -0.3912
vn -0.9659 -0.0000 -0.2588
vn -0.8406 0.5416 -0.0000
vn -0.7825 -0.6227 -0.0000
vn -0.8660 -0.0000 0.5000
vn -0.9659 -0.0000 0.2588
vn -0.7280 0.5416 0.4203
vn -0.6776 -0.6227 0.3912
vn -0.5000 -0.0000 0.8660
vn -0.4203 0.5416 0.7280
vn -0.3912 -0.6227 0.6776
vn -0.2588 -0.0000 0.9659
vn -0.2197 0.5284 0.8201
vn -0.1619 0.7803 0.6040
vn -0.3061 0.7908 0.5301
vn 0.2654 -0.8475 0.4597
vn -0.0000 -0.8475 0.5308
vn -0.2654 -0.8475 0.4597
vn -0.4597 -0.8475 0.2654
vn -0.5301 0.7908 0.3061
vn -0.5308 -0.8475 -0.0000
vn -0.6121 0.7908 -0.0000
vn -0.4597 -0.8475 -0.2654
vn -0.5301 0.7908 -0.3061
vn -0.2654 -0.8475 -0.4597
vn -0.3061 0.7908 -0.5301
vn -0.0000 -0.8475 -0.5308
vn -0.0000 0.7908 -0.6121
vn 0.2654 -0.8475 -0.4597
vn 0.3061 0.7908 -0.5301
vn 0.4597 -0.8475 -0.2654
vn 0.5301 0.7908 -0.3061
vn 0.5308 -0.8475 -0.0000
vn 0.6121 0.7908 -0.0000
vn 0.4597 -0.8475 0.2654
vn 0.5301 0.7908 0.3061
vn 0.4422 0.7803 0.4422
vn -0.0000 1.0000 -0.0000
vt 0.083333 0.500000
vt 0.083333 0.664798
vt 0.000000 0.664798
vt 0.000000 0.500000
vt 0.370000 0.457846
vt 0.250000 0.490000
vt 0.250000 0.250000
vt 0.083333 0.699982
vt 0.000000 0.699982
vt 0.083333 0.866648
vt 0.000000 0.866648
vt 0.000000 0.831465
vt 0.083333 0.831465
vt 0.166667 0.699982
vt 0.166667 0.664798
vt 0.166667 0.866648
vt 0.166667 0.831465
vt 0.250000 0.699982
vt 0.250000 0.664798
vt 0.250000 0.866648
vt 0.250000 0.831465
vt 0.333333 0.699982
vt 0.333333 0.664798
vt 0.333333 0.866648
vt 0.333333 0.831465
vt 0.416667 0.699982
vt 0.416667 0.664798
vt 0.416667 0.866648
vt 0.416667 0.831465
vt 0.500000 0.699982
vt 0.500000 0.664798
vt 0.500000 0.866648
vt 0.500000 0.831465
vt 0.583333 0.699982
vt 0.583333 0.664798
vt 0.583333 0.866648
vt 0.583333 0.831465
vt 0.666667 0.699982
vt 0.666667 0.664798
vt 0.666667 0.866648
vt 0.666667 0.831465
vt 0.750000 0.699982
vt 0.750000 0.664798
vt 0.750000 0.866648
vt 0.750000 0.831465
vt 0.833333 0.699982
vt 0.833333 0.664798
vt 0.833333 0.866648
vt 0.833333 0.831465
vt 0.916667 0.699982
vt 0.916667 0.664798
vt 0.916667 0.866648
vt 0.916667 0.831465
vt 1.000000 0.699982
vt 1.000000 0.664798
vt 1.000000 0.866648
vt 1.000000 0.831465
vt 1.000000 0.500000
vt 0.916667 0.500000
vt 0.083333 1.000000
vt 0.000000 1.000000
vt 1.000000 1.000000
vt 0.916667 1.000000
vt 0.833333 1.000000
vt 0.833333 0.500000
vt 0.750000 1.000000
vt 0.750000 0.500000
vt 0.666667 1.000000
vt 0.666667 0.500000
vt 0.583333 1.000000
vt 0.583333 0.500000
vt 0.500000 1.000000
vt 0.500000 0.500000
vt 0.416667 1.000000
vt 0.416667 0.500000
vt 0.333333 1.000000
vt 0.333333 0.500000
vt 0.250000 1.000000
vt 0.250000 0.500000
vt 0.166667 1.000000
vt 0.166667 0.500000
vt 0.750000 0.490000
vt 0.870000 0.457846
vt 0.750000 0.250000
vt 0.957846 0.370000
vt 0.990000 0.250000
vt 0.957846 0.130000
vt 0.870000 0.042154
vt 0.750000 0.010000
vt 0.630000 0.042154
vt 0.542154 0.130000
vt 0.510000 0.250000
vt 0.542154 0.370000
vt 0.630000 0.457846
vt 0.130000 0.457846
vt 0.042154 0.370000
vt 0.010000 0.250000
vt 0.042154 0.130000
vt 0.130000 0.042154
vt 0.250000 0.010000
vt 0.370000 0.042154
vt 0.457846 0.130000
vt 0.490000 0.250000
vt 0.457846 0.370000
s 1
g off
f 2/1/1 1/4/1 3/3/1 4/2/1
f 8/5/2 78/7/2 6/6/2
f 76/8/3 75/2/5 30/3/4 29/9/4
s 2
f 74/10/6 73/13/3 32/12/4 31/11/7
s 1
f 72/14/8 71/15/9 75/2/5 76/8/3
s 2
f 70/16/10 69/17/8 73/13/3 74/10/6
s 1
f 68/18/11 67/19/12 71/15/9 72/14/8
s 2
f 66/20/13 65/21/11 69/17/8 70/16/10
s 1
f 64/22/14 63/23/16 67/19/12 68/18/15
s 2
f 62/24/17 61/25/14 65/21/15 66/20/13
s 1
f 60/26/18 59/27/19 63/23/16 64/22/14
s 2
f 58/28/20 57/29/18 61/25/14 62/24/17
s 1
f 56/30/21 55/31/22 59/27/19 60/26/18
s 2
f 54/32/23 53/33/21 57/29/18 58/28/20
s 1
f 52/34/24 51/35/26 55/31/22 56/30/25
s 2
f 50/36/27 49/37/24 53/33/25 54/32/23
s 1
f 48/38/28 47/39/29 51/35/26 52/34/24
s 2
f 46/40/30 45/41/28 49/37/24 50/36/27
s 1
f 44/42/31 43/43/32 47/39/29 48/38/28
s 2
f 42/44/33 41/45/31 45/41/28 46/40/30
s 1
f 40/46/34 39/47/36 43/43/32 44/42/35
s 2
f 38/48/37 37/49/34 41/45/35 42/44/33
s 1
f 36/50/38 35/51/39 39/47/36 40/46/34
s 2
f 34/52/40 33/53/38 37/49/34 38/48/37
s 1
f 29/54/41 30/55/42 35/51/39 36/50/38
s 2
f 31/56/7 32/57/41 33/53/38 34/52/40
s 1
f 5/58/43 7/59/44 35/51/39 30/55/42
s 2
f 74/10/6 31/11/7 6/61/46 28/60/45
f 31/56/7 34/52/40 8/63/47 6/62/46
f 34/52/40 38/48/37 10/64/48 8/63/47
s 1
f 7/59/44 9/65/49 39/47/36 35/51/39
s 2
f 38/48/37 42/44/33 12/66/50 10/64/48
s 1
f 9/65/49 11/67/51 43/43/32 39/47/36
s 2
f 42/44/33 46/40/30 14/68/52 12/66/50
s 1
f 11/67/51 13/69/53 47/39/29 43/43/32
s 2
f 46/40/30 50/36/27 16/70/54 14/68/52
s 1
f 13/69/53 15/71/55 51/35/26 47/39/29
s 2
f 50/36/27 54/32/23 18/72/56 16/70/54
s 1
f 15/71/55 17/73/57 55/31/22 51/35/26
s 2
f 54/32/23 58/28/20 20/74/58 18/72/56
s 1
f 17/73/57 19/75/59 59/27/19 55/31/22
s 2
f 58/28/20 62/24/17 22/76/60 20/74/58
s 1
f 19/75/59 21/77/61 63/23/16 59/27/19
s 2
f 62/24/17 66/20/13 24/78/62 22/76/60
s 1
f 21/77/61 23/79/63 67/19/12 63/23/16
s 2
f 66/20/13 70/16/10 26/80/64 24/78/62
s 1
f 23/79/63 25/81/65 71/15/9 67/19/12
s 2
f 70/16/10 74/10/6 28/60/45 26/80/64
s 1
f 25/81/65 27/1/66 75/2/5 71/15/9
s 2
f 5/82/67 77/84/67 7/83/67
f 7/83/67 77/84/67 9/85/67
f 9/85/67 77/84/67 11/86/67
f 11/86/67 77/84/67 13/87/67
f 13/87/67 77/84/67 15/88/67
f 15/88/67 77/84/67 17/89/67
f 17/89/67 77/84/67 19/90/67
f 19/90/67 77/84/67 21/91/67
f 21/91/67 77/84/67 23/92/67
f 23/92/67 77/84/67 25/93/67
f 25/93/67 77/84/67 27/94/67
f 27/94/67 77/84/67 5/82/67
s 1
f 6/6/2 78/7/2 28/95/2
f 28/95/2 78/7/2 26/96/2
f 26/96/2 78/7/2 24/97/2
f 24/97/2 78/7/2 22/98/2
f 22/98/2 78/7/2 20/99/2
f 20/99/2 78/7/2 18/100/2
f 18/100/2 78/7/2 16/101/2
f 16/101/2 78/7/2 14/102/2
f 14/102/2 78/7/2 12/103/2
f 12/103/2 78/7/2 10/104/2
f 10/104/2 78/7/2 8/5/2
