# Blender 5.1.2
# www.blender.org
g ufo_small_ring_Cylinder.004
v 0.000000 -0.595855 0.045272
v 0.000000 -0.619024 0.045272
v -0.022636 -0.619024 0.039207
v -0.022636 -0.595855 0.039207
v -0.039207 -0.619024 0.022636
v -0.039207 -0.595855 0.022636
v -0.045272 -0.619024 0.000000
v -0.045272 -0.595855 0.000000
v -0.039207 -0.619024 -0.022636
v -0.039207 -0.595855 -0.022636
v -0.022636 -0.619024 -0.039207
v -0.022636 -0.595855 -0.039207
v 0.000000 -0.619024 -0.045272
v 0.000000 -0.595855 -0.045272
v 0.022636 -0.619024 -0.039207
v 0.022636 -0.595855 -0.039207
v 0.039207 -0.619024 -0.022636
v 0.039207 -0.595855 -0.022636
v 0.045272 -0.619024 0.000000
v 0.045272 -0.595855 0.000000
v 0.039207 -0.619024 0.022636
v 0.039207 -0.595855 0.022636
v 0.022636 -0.619024 0.039207
v 0.022636 -0.595855 0.039207
vn -0.2588 -0.0000 0.9659
vn -0.5000 -0.0000 0.8660
vn 0.5000 -0.0000 0.8660
vn 0.2588 -0.0000 0.9659
vn -0.8660 -0.0000 0.5000
vn -0.9659 -0.0000 0.2588
vn -0.9659 -0.0000 -0.2588
vn -0.8660 -0.0000 -0.5000
vn -0.5000 -0.0000 -0.8660
vn -0.2588 -0.0000 -0.9659
vn 0.2588 -0.0000 -0.9659
vn 0.5000 -0.0000 -0.8660
vn 0.8660 -0.0000 -0.5000
vn 0.9659 -0.0000 -0.2588
vn 0.9659 -0.0000 0.2588
vn 0.8660 -0.0000 0.5000
vt 1.000000 0.699982
vt 1.000000 0.831465
vt 0.916667 0.831465
vt 0.916667 0.699982
vt 0.083333 0.699982
vt 0.083333 0.831465
vt 0.000000 0.831465
vt 0.000000 0.699982
vt 0.833333 0.831465
vt 0.833333 0.699982
vt 0.750000 0.831465
vt 0.750000 0.699982
vt 0.666667 0.831465
vt 0.666667 0.699982
vt 0.583333 0.831465
vt 0.583333 0.699982
vt 0.500000 0.831465
vt 0.500000 0.699982
vt 0.416667 0.831465
vt 0.416667 0.699982
vt 0.333333 0.831465
vt 0.333333 0.699982
vt 0.250000 0.831465
vt 0.250000 0.699982
vt 0.166667 0.831465
vt 0.166667 0.699982
s 1
g off
f 1/1/1 4/4/2 3/3/2 2/2/1
s 2
f 24/5/3 1/8/4 2/7/4 23/6/3
s 1
f 4/4/2 6/10/5 5/9/5 3/3/2
f 6/10/5 8/12/6 7/11/6 5/9/5
s 2
f 8/12/7 10/14/8 9/13/8 7/11/7
f 10/14/8 12/16/9 11/15/9 9/13/8
f 12/16/9 14/18/10 13/17/10 11/15/9
s 1
f 14/18/11 16/20/12 15/19/12 13/17/11
f 16/20/12 18/22/13 17/21/13 15/19/12
f 18/22/13 20/24/14 19/23/14 17/21/13
s 2
f 20/24/15 22/26/16 21/25/16 19/23/15
f 22/26/16 24/5/3 23/6/3 21/25/16
